<svg version="1" xmlns="http://www.w3.org/2000/svg" width="682.667" height="682.667" viewBox="0 0 512.000000 512.000000"><path d="M228.3 8C154.3 17.2 89.9 57.3 49 119.5c-7.6 11.5-19 33.3-19 36.2 0 .9-.6 2.4-1.4 3.2-4 4.6-15.6 43.5-16 54.2-.2 3.1-.6 6.1-.9 6.6-1.8 2.9-2.9 22.5-2.3 42.3.3 11.8.8 22.4 1 23.5.3 1.1 1 5.6 1.7 10 .6 4.4 1.8 9.2 2.5 10.7.8 1.5 1.4 4.1 1.4 5.9 0 3.6 3.7 16.9 5.1 18.3.5.6.9 2.1.9 3.4 0 2.4 2.3 8.7 6.4 17.7 1.3 2.7 3.4 7.5 4.7 10.5 3.8 8.7 6.9 13.9 9 15 1 .6 1.6 1.6 1.3 2.3-1 2.6 13 23.5 25.8 38.4 51.3 59.8 130.9 92.3 208.8 85.2 32.7-2.9 59.9-10.6 89-25 24.9-12.4 43.3-25.4 63.4-44.9 32.2-31.3 55.9-71.9 67.1-115 10-38.5 10-87.2.1-124.5-4.8-18-5.7-20.9-10.2-31.8-29.9-73.1-93.1-128.2-169.2-147.6C298.4 9 287.7 7.8 261 7.4c-14-.1-28.8.1-32.7.6zM121 109c-.6.4-1.1 1.1-1.1 1.6.1 1.5-1.1 4.6-1.6 4.1-.2-.3 0-1.6.7-2.9 1.1-2.2 1.1-2.2-.5-.3-1 1.2-1.5 3.3-1.3 5.2.4 3.7.4 3.7-2.3 2.2-1.8-.9-1.9-.8-1 .9.6 1.1.7 2.3.3 2.7-.4.3-.7 1.1-.7 1.5 0 .5-.7 1.5-1.6 2.2-.8.7-4.2 5.3-7.4 10.3-3.3 4.9-6.5 9.6-7.2 10.3-.7.7-1.3 2.2-1.3 3.1 0 1-.8 2.9-1.9 4.2-5 6.4-14.3 28.4-20 47.1-3.7 12.3-6 22.7-7.6 35.3-.4 2.7-1.1 5.5-1.6 6.2-.7.8-.4 1.5.7 2.1 1.4.8 1.5 1.3.7 2.4-1.4 1.7-2.4 10-2.6 21.5-.1 5.1-.4 9.3-.7 9.3-1.1 0-1 13.7 0 19 .7 3 1.2 6.4 1.3 7.5.1 1.1.7 2.3 1.2 2.7.6.4.2.8-.7.8-2 0-2.3 1.6-.9 5.2 1.4 3.9 2.3 10 1.3 9.4-1.8-1.1-7.2-13.4-7.2-16.5 0-1.7-.4-3.9-.9-4.9-8.7-16.4-9.2-18.4-9.8-38.7-.6-25 1.6-43.6 7.9-66 3-10.6 10.4-29.7 13.2-34 .7-1.1 3.5-6.1 6.1-11 2.6-5 5.5-10.1 6.4-11.5.9-1.4 2.1-3.4 2.7-4.5.6-1.1 2-2.4 3.2-3 1.2-.5 2.2-1.3 2.2-1.7 0-2.9 15.4-17.2 17.6-16.4.8.3 1.3.2 1.3-.2-.3-1.9.2-2.3 1.6-1.2 1.2 1 1.5 1 1.5-.3 0-1 .6-1.3 1.9-1 1 .2 2.5-.3 3.4-1.2.9-.8 2-1.7 2.4-1.8.4-.1.7-.5.6-.9-.2-.4.4-.5 1.3-.1 1.1.4 1.2.8.4 1.3zm154.8 44.6c13.7 2.8 27.7 8.6 38.2 15.7 6.5 4.5 19.4 17.2 25.1 24.8 6.4 8.7 12.4 21.5 15.6 33.7 2.3 8.5 2.7 11.7 2.7 25.7 0 14.4-.2 17-2.7 26-13 47.4-55.8 78.8-103.6 76.2-54.7-3-97.1-47.1-97.1-101.2 0-13.3 1.2-21.4 4.6-32 11.6-35.6 40.8-61.7 77.4-69 9.4-1.9 30.5-1.8 39.8.1zm160.2 1.3c0 .3 1.3 1.9 2.8 3.6 5.8 6.3 9.1 11.3 12.3 18.4 1.8 4.1 4.3 8.4 5.5 9.6 3.9 3.9 6 14.4 8.3 41 1.1 12.8.6 36-.9 44.9-.7 3.8-2.3 9.3-3.5 12.1-2.7 6-5.7 17.1-8.5 31.5-2.4 11.7-9.5 29-13.6 32.7-1.3 1.2-2.4 2.6-2.4 3.1s-1.1 1.9-2.5 3.2c-2.5 2.3-2.5 2.3-2.5.2 0-1.1.4-2.3.9-2.6.5-.3 1.2-1.7 1.5-3 .3-1.4 1.9-5.3 3.5-8.8 1.6-3.5 3.6-8.9 4.5-12.1.9-3.1 3.2-9.2 5.2-13.5 3.6-7.8 4.3-11.8 6.4-32.2 2-20.3.6-47.3-3.6-69.8-1.8-9.9-9.5-34.7-12.6-40.7-3-5.9-4.9-12.5-3.5-12.5.6 0 .2-.7-.9-1.5-1.9-1.5-1.9-1.5.1-.8 1.8.6 1.9.5.5-1.2-1.2-1.5-1.2-1.7-.1-1 1.1.6 1.3.4.8-.8-.4-1.1-.2-1.4.9-1 .7.3 1.4.8 1.4 1.2zM112.3 188c-.2 1.4-.5 3.3-.6 4.2-.1 1-.4 1.8-.7 1.8-.3 0-.7.8-.8 1.7-.1 1-.3 2.5-.5 3.3-.2.8-.7 3.3-1.1 5.5-1.5 8-8.2 27.1-9.9 28.2-.6.3-.7.1-.3-.5.4-.7.1-1.2-.9-1.2-1.1 0-1.5-.6-1.2-1.8.2-.9-.3-3-1.1-4.6-1.5-3.2-.9-12 1-14.3.6-.7.8-1.3.5-1.3-.7 0 2.6-9.9 5.5-16.3 1.2-2.6 2.6-4.7 3-4.7.5 0 .7-.4.4-.8-.3-.5.6-1.5 1.9-2.2 1.4-.7 2.5-1.8 2.5-2.4 0-.5.6-.1 1.4.9.8 1.1 1.2 3.1.9 4.5zm294.2 20.9c.6 2.6.4 3.2-.6 2.9-.8-.3-1.7-2.4-2-4.7-.4-3.3-.3-3.9.7-2.9.6.7 1.5 2.8 1.9 4.7zm2.1 9.7c-.3.8-1.9 1.4-4.1 1.4h-3.6l3.2-3.1c2.8-2.8 3.3-2.9 4.1-1.5.5 1 .7 2.4.4 3.2zm3 13.5c3.1 15 3.5 22.5 2.4 37.8-2.1 27.5-10.6 51.6-25.9 73-8.1 11.3-19.9 24.1-22.2 24.1-1.8 0-3.3 2.6-2.3 4.1.3.5.1.9-.3.9-1.1 0-3.9-4.8-4.7-8.2-.5-2.1 0-3.4 2.4-6 1.6-1.8 3-3.6 3-4 0-.7 2.6-5 7.7-13.3.7-1.1 2-3.4 2.9-5 .9-1.7 2.3-3.8 3.2-4.7.8-1 3.3-5.7 5.4-10.5 8.8-19.4 14.1-38.9 15.4-56.6.4-5.4 1.1-8.4 1.7-8 .6.4.8-.5.4-2.5-.4-1.7-.2-3.4.4-3.7.5-.4.8-1.6.7-2.8-.2-1.9.8-12.9 1.6-17.7.8-4.2 3.3-8.3 5-7.7.6.2 2.1 5.1 3.2 10.8zM105.9 242c.1 8.9.8 12.7 2.6 15 1.5 1.9 4.9 12.4 7 21.2.8 3.7 3.1 11.5 5 17.2 3 9 4.3 13.6 6 21.6.2.8.4 1.5.5 1.5.1 0 .3 1.5.4 3.3.1 1.8.6 3.6 1.1 4 1.2.9 1.6 4.4.4 3.6-.5-.3-.9 0-.9.5 0 .6.4 1.1.8 1.1 1.2 0 3 4.2 2.5 5.7-.6 1.6-3.3.5-3.3-1.3 0-.9-1.1-1.4-2.7-1.4-2.5 0-2.6-.1-.8-1.3 1.7-1.3 1.6-1.5-1.2-2.4-2.2-.8-3.6-2.6-6-7.4-3.1-6.6-6.3-15.3-8.1-22.4-2.3-8.8-5.5-22.3-6.6-28.3-1.7-9.3-1-34.1 1-37.4 1.5-2.3 2.2.1 2.3 7.2zM68 328c0 1.3-.1 1.3-1 0-.5-.8-1-2.2-1-3 0-1.3.1-1.3 1 0 .5.8 1 2.2 1 3zm290 41.5c0 .8-.7 1.5-1.5 1.5-.9 0-1.2-.6-.9-1.5.4-.8 1-1.5 1.5-1.5s.9.7.9 1.5z"/></svg>