<svg version="1" xmlns="http://www.w3.org/2000/svg" width="1024" height="1024" viewBox="0 0 768.000000 768.000000"><path d="M355.9 10.9c-13.1 1-23.2 2.5-42.4 6.2C209 37.3 118.6 101.7 63.7 195c-8.4 14.2-18.9 35.9-18.7 38.8.3 4.3.1 4.9-1.8 5.4-1.4.4-3.3 4.4-7 14.4-2.8 7.7-5.8 16.4-6.6 19.4-.8 3-1.9 6.7-2.5 8.2-1.3 3.5-6.7 26.3-8.2 35.1-.8 5.1-.8 7.2 0 8 1.6 1.6 1.4 3.4-.8 6.5-2.4 3.4-3.8 16.9-4.7 44.7-.6 18.1-.5 20.4 1.1 23.9 1.5 3.2 1.6 4.3.7 7-.7 1.8-1 5.3-.7 7.7 3.7 32.3 5.5 42 8.4 46 1.8 2.4 2.1 3.8 1.6 7.2-.9 6.3 3.9 24.1 7.8 28.4 1.3 1.5 1.7 3 1.3 5-.4 1.8.3 4.8 2 8.8 1.4 3.3 3.4 8.9 4.5 12.4s3.1 7.3 4.5 8.6c1.4 1.3 2.4 3.4 2.4 4.9 0 2.7 6.6 16.8 11.3 24.3 1.6 2.5 3.7 4.5 5.2 4.9 2.1.5 2.5 1.1 2.3 4.5-.1 3.2 1.2 6 8.2 17.1 21.6 34.4 49.3 64.6 83.9 91.6 74.5 58 169.9 85.5 264.6 76.1 34.2-3.3 74.7-13.5 105.5-26.4 20.6-8.6 49-24 66.5-36 2.8-1.9 6.8-4.7 9-6.2 26.1-17.9 63.8-55.6 82.7-82.6 3.2-4.5 7.2-10.1 8.9-12.5 4.6-6.2 17.9-28.7 22.4-37.8 2.1-4.4 5-10.4 6.6-13.4 3-6.2 13.9-33.4 13.9-35 0-.6 1.1-4.3 2.5-8.3 3.1-8.8 7.9-27.2 10-38.7.8-4.7 1.9-10.6 2.5-13.1 5.1-25.3 6.1-79.4 2-108.4-3.7-26.2-9.2-51.7-13-60.3-1.1-2.5-2-5.3-2-6.3 0-2.6-5.9-19.4-11-31.4-8.9-21.1-25.9-51.5-38.4-69-6.4-8.8-7.3-9.8-8.8-8.9-.7.5-.9.2-.5-.8 1.8-5-32.2-41.9-58.8-63.7-23-18.9-40.1-30.2-66.8-44-38.7-20.2-79.3-32.7-125-38.5-13.8-1.8-59.3-2.8-74.8-1.7zM321 67c0 .5-1 1-2.2.9-2.2 0-2.2-.1-.3-.9 1.1-.5 2.1-.9 2.3-.9.1-.1.2.3.2.9zm-132.5 90.3c1.3 1 1.5 1.6.6 2.1-.6.4-.9 1.2-.6 1.7 1 1.5-7.5 12.8-9.9 13.1-1.7.2-2 .9-1.8 3.5.3 2.8 0 3.3-1.7 3.3-2.2 0-4.1 2.7-4.1 6 0 1.3-.9 2.4-2.5 3-1.4.5-3 2.1-3.5 3.4-.5 1.4-3.3 5.8-6.3 9.8-3 4-6.1 8.7-7.1 10.5-.9 1.8-2.5 4-3.5 5-1.1 1-2.9 4.3-4.1 7.5-1.1 3.1-2.8 6.2-3.7 7-1.4 1.1-4.8 7.8-13.5 26.8-4.1 8.9-10.5 25.8-13.6 36-5.8 18.5-7.1 23.6-8.7 32.5-.9 4.9-2 11.2-2.5 14-.5 2.7-1.2 8.4-1.6 12.5-.3 4.1-1.1 8.1-1.7 8.9-.9 1-.7 1.6.6 2.6 2.1 1.5 2.2 2.9.1 4.6-1.4 1.1-1.5 4.2-.8 26.8 1 34.3 1 33.1-.6 34.1-1.5.9-1.6 19.7-.1 24.7.1.2.1.5.2.8 0 .2.7 2.8 1.4 5.7 1.2 4.4 1.3 7.2.2 5.7-4.1-5.5-4.7-6-4.7-4.6 0 2.8 4.8 21 7 26.6 1.1 2.9 1.9 5.5 1.7 5.8-.6.5-3.1-3.6-4.6-7.7-1.7-4.7-5.2-11.2-6.8-12.8-.7-.7-1.6-2.5-2-4-.3-1.5-1.2-3.6-1.8-4.7-.7-1.1-1.5-4.5-1.8-7.6-.5-5.6-4.4-15-10.3-24.7-3.6-6.1-5.3-13.6-6.4-27.7-1.3-16-1.2-27.2.1-29.6.7-1.4.7-2.4 0-3.3-.7-.8-.6-5.6.4-15.1 3.2-30.1 7.2-50.6 14.4-73.5 4.1-13.1 11.8-32.4 15.2-38.4 1.7-2.9 9.8-18.3 13.7-26.1 2-3.9 4.8-8.8 6.3-11 1.4-2.2 2.9-4.9 3.3-6 .9-3 4.9-7.2 7.1-7.6 1.6-.3 2.1-1.5 2.5-5 .6-5.2 2.6-8.3 4.7-7.5.8.3 1.1.1.8-.4-.4-.6-.3-2 0-3.1.5-1.6 1.3-2 3.1-1.6 2.5.4 5.9-2.7 4.8-4.5-.3-.4.3-1.1 1.3-1.4 3.7-1.2 8.9-3.8 12.4-6.1 3-2 4.1-2.2 6.3-1.3 2.1.7 2.8.7 3.2-.4.3-.8 1.9-2 3.5-2.6 1.6-.7 3.3-1.9 3.7-2.7.9-1.6 6.7-2.1 9.6-.8 1.4.6 1.8.5 1.4-.6-.3-.8-1.3-1.3-2.2-1.3-.9.1-1.6-.2-1.6-.7 0-1.3 2.4-1.1 4.5.4zm364.6 57.9c2 2.9 2.1 3.1.4 1.8-4.3-3.3-5.5-5-3.6-5 .5 0 2 1.5 3.2 3.2zm94.1 4.8c2.2 2.2 4.4 4 4.9 4s.9.9.9 1.9c0 1.1.9 2.3 2 2.6 1.1.3 2 1.3 2 2.2 0 1 .6 1.4 2 1 1.1-.3 1.8-.2 1.5.3-.9 1.5 2.6 7 4.5 7 1 0 2.9 1.3 4.3 2.9 1.4 1.7 2.7 2.8 3 2.5.3-.3.8.8 1.2 2.5.3 1.6 1.3 3.5 2 4.1.8.7 1.7 2.7 2.1 4.6.3 1.9.9 3.4 1.3 3.4s1.5 2.6 2.4 5.8c.9 3.3 3 9 4.8 12.7 4.2 9.2 6.5 17.3 9.3 34 2.2 12.8 2.9 17.6 4.1 30.5.2 2.5.5 14.8.6 27.5.1 20-.2 24.4-2 33.5-2.4 11.5-3.1 13.7-7.1 22.5-3.5 7.6-5.6 14-6.5 19-.3 2.2-1.2 5.6-2 7.5-.7 1.9-2.1 8-3 13.5-2.2 12.3-5.2 25-7 29-.8 1.6-2.1 4.6-2.9 6.5-.8 1.9-2.1 4.6-2.9 6-.8 1.4-2.9 5.6-4.7 9.3-2.1 4.6-4 7.1-5.6 7.7-1.3.5-2.4 1.6-2.4 2.4 0 .8-1.6 3.2-3.5 5.3-3.2 3.5-3.5 3.6-3.5 1.5 0-1.3.6-3.6 1.4-5 .7-1.5 1.8-3.8 2.4-5.2.5-1.4 1.7-4.1 2.6-6.2.9-2 1.6-4.2 1.6-4.9 0-.7.6-2 1.4-2.8.7-.9 2.8-6.3 4.6-12.1 3.5-11.3 3.6-11.5 7.5-20.5 4.1-9.2 5.1-11.7 6.4-15.7 1.9-5.8 4.2-21.7 4-27.2-.1-2.8.4-10.5 1.1-17.1.9-8.1 1.1-18 .7-30.5-1-28.1-2.4-41.7-6.4-62.5-.8-4.4-1.7-8.9-1.8-10-.7-4.9-6.2-23.2-7.5-25-.4-.6-1-2.1-1.3-3.5-1.4-6.6-12.4-33-17.8-42.6-1.6-2.8-2.6-5.4-2.3-5.7.4-.4.1-1.4-.7-2.3-.7-.9-1.4-2.1-1.6-2.8-.1-.6-.6-2.7-1.1-4.6-1.1-4.3-.6-6.1 1.5-5.3 1.3.5 1.5.1 1-2.5-.4-1.8-.4-3.2 0-3.2.3 0 2.4 1.8 4.5 4zm-237.7 9.5c55 8.9 101 47.8 119.3 101 5.9 17.1 7.5 27.8 7.6 49.5 0 22-1.1 29.8-7.1 48.5-18 55.9-67.1 96.7-126 104.6-12.2 1.6-37.1.6-49.5-2.1-21.1-4.4-42-13.4-58.3-25-12.3-8.8-30.5-27.2-38.4-39-11.4-17.1-19.4-35.8-23.8-56-2.6-12.3-2.6-48.8.1-61 12.6-57.5 53.4-101.2 109.1-116.9 5.5-1.6 14.1-3.4 19-4 5-.6 10.4-1.3 12-1.5 5.3-.8 26.8.4 36 1.9zM168 281.6c0 2.3-.5 5.5-1.1 7.1-.9 2.5-1.6 5.3-5.5 23.3-.8 3.6-2.3 8.6-3.4 11.2-1.1 2.6-2 5.6-2 6.7 0 1.1-.6 3.5-1.4 5.3-2.3 5.1-2.9 7.2-2.8 8.4.1.6-.9 1.7-2.3 2.4-3 1.6-6.1-.2-4.6-2.7.5-1 0-3-1.6-5.9-1.9-3.4-2.3-5.3-1.9-8.6.7-5.6 1.6-9.8 2.6-12.3.4-1.1 1.6-4.9 2.5-8.5.9-3.6 2.9-9.2 4.4-12.5 1.6-3.3 3.4-7.5 4.1-9.3.7-1.8 3.3-5.1 5.8-7.2 5.4-4.8 7.2-4.1 7.2 2.6zm441.5 31.6c.4 2.7.3 4.8-.1 4.8-1.8 0-3.4-4-3.2-8 .1-3.3.4-3.8 1.4-2.8.7.7 1.6 3.4 1.9 6zm3.1 10.5c2 2.7 1.7 4-1.3 5.1-7 2.6-12.5 2-7.3-.8 1.2-.6 2.5-2.2 3-3.6 1.1-2.8 3.7-3.1 5.6-.7zm1.9 10.5c.3 1.3 1.9 8.6 3.7 16.3 3.2 13.7 3.2 14.5 3.2 38.5.1 26.2-.8 34.1-6 54-6.6 25.1-17.5 50.1-29.2 67-12.6 18.2-33.2 41.4-38.4 43.3-1.2.4-1.8 1.7-1.8 3.7 0 1.6-.4 3-1 3-.5 0-1-.4-1-.9 0-.6-1.2-2.3-2.6-3.8l-2.7-2.8.6 3.7c.5 3.5.4 3.8-1.8 3.8-1.6 0-2.3.5-2 1.3.3.7-1 1.9-3.2 2.9-3.5 1.5-3.8 1.5-4.4-.1-.4-.9-.1-1.7.6-1.9.8-.2 1.1-1.2.8-2.3-.3-1.1.1-3.2.8-4.7 1.7-3.2 5.6-7.2 6.3-6.4.3.3.7-.1.7-.9.2-2.1.2-2.1-.5-6.2-.6-3.3-.5-3.7 1.3-3.7 1.4 0 2.5-1.2 3.7-3.8 3.7-8.3 7.3-14.2 14.1-22.7 3.2-4 6.3-8.5 7.8-11.5 1-1.9 2.6-4.1 3.6-4.8 1.1-.7 1.9-1.8 1.9-2.3 0-.6 1.9-4.9 4.1-9.7 16.8-35.4 24.3-65.8 25.1-101.5.2-8.1.6-10.6 1.5-10.2.7.2 1.3 0 1.3-.4 0-.5-.6-1.1-1.2-1.4-1-.3-.9-1.1.3-3.3 1.9-3.3 3.5-11 4.3-19.9.3-3.3 1-6.1 1.6-6.3.5-.2 1-1.2 1-2.2 0-2.1 3.7-6 5.7-6 .7 0 1.5 1 1.8 2.2zm-455.4 20.3c-.3 1.7-.4 3.9-.3 5 .1 1.1.3 5.1.4 9 .2 3.9.9 7.6 1.6 8.3.7.8 1.2.9 1.2.3 0-.6.5-1.1 1-1.1.6 0 1 .7 1 1.5s.6 1.2 1.4.9c1.4-.5 3 2.8 2.6 5.5-.1.8.3 1 1.1.6.8-.6 1 .1.6 2.6-.4 3 3.3 26.2 6.2 38.9 1.8 7.8 13.7 42.2 17.3 50 1.9 4.1 3.8 8.7 4.1 10.2.4 1.6 1.1 2.8 1.6 2.8s1.2 1.3 1.6 2.9c.3 1.6 1.5 3.7 2.6 4.6 1.4 1.4 1.6 2.1.8 3.1-.9 1.1-.7 1.5.5 2 1 .4 1.5 1.2 1.2 1.9-.3.8.2 1.6 1 1.9.8.3 1.4 1.5 1.4 2.6 0 1.4-.4 1.9-1.2 1.4-1-.6-1-.4 0 .7.6.7 1.2 2.1 1.2 3 0 1 .6 1.9 1.3 2.2.9.3.9.7-.2 2-1.1 1.4-1.1 1.7 0 1.7 1.2 0 1.2.2 0 .9-.9.6-1 1.1-.3 1.5.6.4.9 1.3.6 2-.3.8.4 1.6 1.5 1.9 1.3.3 2.1 1.3 2.1 2.6 0 1.2.5 2.1 1 2.1.6 0 1 .9 1 2 0 2 0 2-2 0-1.1-1.1-2-2.4-2-2.9s-.9-1.1-2-1.4c-1-.3-2.7-2.1-3.7-4.1-1-2.2-2.4-3.6-3.5-3.6s-1.8-.7-1.8-1.8c0-1.3-.7-1.8-2.1-1.8-1.5.1-2.7-.9-3.8-3.1-.9-1.8-2.4-3.5-3.3-3.9-1-.3-1.8-1.1-1.8-1.9 0-.7-1.4-2.7-3-4.5-2.4-2.5-2.8-3.6-1.9-4.6.9-1.1.7-1.5-.5-2-3.1-1.2-8.6-11.3-14.6-26.9-.4-1.1-1.2-3.2-1.8-4.6-3.4-8.6-12.5-47.4-14.2-60.4-1.9-15.1-.4-47.8 2.4-52.4.4-.7 1.5-1.1 2.4-.9 1.3.3 1.6 1.1 1.3 3.3zm-53.7 146.1c.3.8.2 1.2-.4.9-.6-.3-1-1-1-1.6 0-1.4.7-1.1 1.4.7zm4.6 9.4c0 .5-.4 1-1 1-.5 0-1-.5-1-1 0-.6.5-1 1-1 .6 0 1 .4 1 1zm76.8 104.4c1.5.8 6.5 4.4 11.2 8.1 4.7 3.6 11.8 9.1 15.9 12.3 4.1 3.1 6.9 5.8 6.3 6-.7.2-2.4-.6-3.8-1.7-1.5-1.2-3.3-2.1-4-2.1-.8 0-1.4-.6-1.4-1.4 0-.7-1.7-2.5-3.7-3.9-2.1-1.4-5.8-4-8.2-5.7-2.6-1.7-5.2-2.8-6.2-2.5-1.1.4-3-.9-5.8-4.1-5.5-6.2-5.5-7.7-.3-5zM226 644c0 .5-.4 1-1 1-.5 0-1-.5-1-1 0-.6.5-1 1-1 .6 0 1 .4 1 1z"/><path d="M669 247.1c0 .5.5.7 1 .4.6-.3 1-.8 1-1.1 0-.2-.4-.4-1-.4-.5 0-1 .5-1 1.1zM195 512.9c0 .6.5 1.3 1 1.6.6.3 1-.1 1-.9 0-.9-.4-1.6-1-1.6-.5 0-1 .4-1 .9z"/></svg>